# xmcd
#
# Track frame offsets: 
#        150
#        450
#        16811
#        31618
#        43810
#        64788
#        85788
#        107862
#        108162
#        125710
#        144767
#        160741
#
# Disc length: 2384 seconds
#
# Revision: 0
# Processed by: cddbd v1.5.2PL0 Copyright (c) Steve Scherf et al.
# Submitted via: ExactAudioCopy v1.1
#
DISCID=88094e0c
DTITLE=Wille And The Bandits - New Breed
DYEAR=2010
DGENRE=Blues Rock
TTITLE0=Keep Your Head Up
TTITLE1=New Breed
TTITLE2=Galloping Horses
TTITLE3=Jack The Lad
TTITLE4=I Can Change
TTITLE5=Country Girl
TTITLE6=Otherside
TTITLE7=Time
TTITLE8=Not On My Own
TTITLE9=Anything You Want To Be
TTITLE10=Money For Nothing
TTITLE11=Once Again
EXTD=
EXTT0=
EXTT1=
EXTT2=
EXTT3=
EXTT4=
EXTT5=
EXTT6=
EXTT7=
EXTT8=
EXTT9=
EXTT10=
EXTT11=
PLAYORDER=
